<svg width="94" height="95" viewBox="0 0 94 95" fill="none" xmlns="http://www.w3.org/2000/svg">
<g clip-path="url(#clip0_1523_293)">
<path opacity="0.1" d="M47.0007 94.3081C72.958 94.3081 94.0005 73.2656 94.0005 47.3084C94.0005 21.3511 72.958 0.308624 47.0007 0.308624C21.0435 0.308624 0.000976562 21.3511 0.000976562 47.3084C0.000976562 73.2656 21.0435 94.3081 47.0007 94.3081Z" fill="url(#paint0_linear_1523_293)"/>
<path d="M74.2256 99.0439V99.0489H19.7363V99.0439C19.7363 91.4879 22.8074 84.6509 27.775 79.7198C28.0063 79.4884 28.2376 79.2676 28.4784 79.0468C29.1928 78.3843 29.9427 77.7628 30.7231 77.1823C31.2367 76.7971 31.7713 76.4374 32.3104 76.0886C32.8499 75.7394 33.4045 75.4107 33.9745 75.1019C33.985 75.0914 33.9955 75.0914 33.9955 75.0914C34.2158 74.968 34.4317 74.8451 34.648 74.7112C35.295 74.331 35.9065 73.8999 36.4915 73.4323C38.9726 71.4598 40.8941 68.8089 41.9877 65.7683V65.7628C42.6402 63.9498 42.9949 61.9928 42.9949 59.9479L51.049 59.9839C51.049 62.0023 51.3927 63.9443 52.0302 65.7418C53.1139 68.7979 55.0249 71.4538 57.5059 73.4362C57.6753 73.5746 57.8496 73.7085 58.0245 73.8369C58.2658 74.0168 58.5126 74.1916 58.7589 74.356C58.9437 74.4789 59.1341 74.6023 59.3244 74.7157C59.5348 74.8441 59.7506 74.9725 59.9664 75.0904C59.9869 75.0959 60.0019 75.1009 60.0179 75.1109C60.0329 75.1209 60.0489 75.1314 60.0644 75.1414C60.6964 75.4906 61.3124 75.8603 61.9079 76.251C62.1082 76.3799 62.3086 76.5128 62.5034 76.6522C62.7607 76.837 63.0225 77.0219 63.2743 77.2172H63.2848C69.926 82.1803 74.2256 90.101 74.2256 99.0439Z" fill="#F89D8F"/>
<path d="M74.2256 99.0441H19.7363C19.7363 91.4881 22.8074 84.651 27.775 79.7199C28.0063 79.4886 28.2376 79.2678 28.4784 79.0469C29.1928 78.3845 29.9427 77.7574 30.7231 77.1774C31.2367 76.7967 31.7713 76.4325 32.3104 76.0883C32.8499 75.7391 33.4045 75.4103 33.9745 75.1016C33.985 75.0911 33.9955 75.0911 33.9955 75.0911C34.2158 74.9677 34.4317 74.8448 34.648 74.7109C35.295 74.3307 35.9065 73.8995 36.4915 73.4319C39.1629 76.1642 42.8815 77.8544 47.0062 77.8544C51.1159 77.8544 54.8345 76.1592 57.5059 73.4369C57.6753 73.5753 57.8496 73.7092 58.0245 73.8376C58.2658 74.0174 58.5126 74.1923 58.7589 74.3566C58.9437 74.4796 59.1341 74.603 59.3244 74.7164C59.5348 74.8498 59.7506 74.9732 59.9664 75.0911C59.9869 75.0966 60.0019 75.1016 60.0179 75.1116C60.0329 75.117 60.0489 75.127 60.0644 75.1375C60.6964 75.4868 61.3124 75.8565 61.9079 76.2516C62.1082 76.3805 62.3086 76.5134 62.5034 76.6528C62.7607 76.8377 63.0225 77.0225 63.2743 77.2179H63.2848C69.926 82.1804 74.2256 90.1012 74.2256 99.0441Z" fill="#9347B2"/>
<path d="M26.0693 23.6941V40.7391C26.0693 55.2161 38.7778 66.9513 46.9813 66.9513C55.1853 66.9513 67.8937 55.2161 67.8937 40.7391V23.6941H26.0693Z" fill="#F89D8F"/>
<path d="M26.0693 38.6888C27.1 38.6888 27.9349 37.8539 27.9349 36.8238V24.9662H26.0693V38.6888Z" fill="#141720"/>
<path d="M67.8924 38.6888V24.9662H66.0273V36.8238C66.0268 37.8539 66.8617 38.6888 67.8924 38.6888Z" fill="#141720"/>
<path d="M67.8926 24.4535C67.8926 26.8935 67.7287 27.4816 66.0271 27.3517C65.9586 26.1691 57.4634 25.2054 46.9867 25.2054C36.5025 25.2054 28.0072 26.1691 27.9388 27.3517C26.2371 27.4816 26.0732 26.8935 26.0732 24.4535C26.0732 24.2142 26.0802 23.9619 26.0867 23.6946C26.3465 17.6733 29.7428 6.41727 46.9867 6.41727C64.223 6.41727 67.6198 17.6733 67.8791 23.6946C67.8856 23.9619 67.8926 24.2147 67.8926 24.4535Z" fill="#141720"/>
<path d="M57.509 73.3091C55.7518 78.7178 52.2127 84.0701 46.9993 88.4466C41.7854 84.0701 38.2517 78.7178 36.4951 73.3091C36.5211 73.3191 36.5516 73.3296 36.5776 73.3396C39.3409 75.8151 42.9985 77.3259 46.9993 77.3259C51.0006 77.3259 54.6527 75.8206 57.4165 73.3451C57.447 73.3346 57.478 73.3196 57.509 73.3091Z" fill="white"/>
</g>
<defs>
<linearGradient id="paint0_linear_1523_293" x1="51.7007" y1="-14.4876" x2="57.004" y2="152.03" gradientUnits="userSpaceOnUse">
<stop stop-color="#FD749B"/>
<stop offset="1" stop-color="#281AC8"/>
</linearGradient>
<clipPath id="clip0_1523_293">
<rect width="94" height="94" fill="white" transform="translate(0 0.307617)"/>
</clipPath>
</defs>
</svg>
